# xmcd
#
# Track frame offsets: 
#        150
#        29269
#        45641
#        66956
#        84335
#        114922
#        126930
#        146862
#        168304
#        186947
#        208866
#        214680
#        236016
#        259521
#        289469
#
# Disc length: 4143 seconds
#
# Revision: 1
# Processed by: cddbd v1.5.2PL0 Copyright (c) Steve Scherf et al.
# Submitted via: ExactAudioCopyFreeDBPlugin 1.0
#
DISCID=e3102d0f
DTITLE=Rising Appalachia - Wider Circles
DYEAR=2015
DGENRE=World Music
TTITLE0=Novels of Acquaintance
TTITLE1=Lean In
TTITLE2=Fall On My Knees
TTITLE3=Rivermouth
TTITLE4=Oh Death
TTITLE5=An Invitation
TTITLE6=Medicine
TTITLE7=Find Your Way
TTITLE8=Synchronicity
TTITLE9=Cripple Creek
TTITLE10=Condensation (Interlude)
TTITLE11=Spirit's Cradle
TTITLE12=Wider Circles
TTITLE13=Bright Morning Stars - Botawak
TTITLE14=Stromboli
EXTD=
EXTT0=
EXTT1=
EXTT2=
EXTT3=
EXTT4=
EXTT5=
EXTT6=
EXTT7=
EXTT8=
EXTT9=
EXTT10=
EXTT11=
EXTT12=
EXTT13=
EXTT14=
PLAYORDER=
